<?xml version="1.0" encoding="iso-8859-1"?>
<!-- Uploaded to: SVG Repo, www.svgrepo.com, Generator: SVG Repo Mixer Tools -->
<!DOCTYPE svg PUBLIC "-//W3C//DTD SVG 1.1//EN" "http://www.w3.org/Graphics/SVG/1.1/DTD/svg11.dtd">
<svg fill="#000000" version="1.1" id="Capa_1" xmlns="http://www.w3.org/2000/svg" xmlns:xlink="http://www.w3.org/1999/xlink" 
	 width="800px" height="800px" viewBox="0 0 43.706 43.706"
	 xml:space="preserve">
<g>
	<g id="U6e4NA_1_">
		<g>
			<g>
				<path d="M42.21,8.761c-0.01,0.18-0.021,0.359-0.03,0.539c0.023-0.001,0.046-0.001,0.069-0.002
					c0.208-0.447,0.415-0.893,0.623-1.34c0.02,0.005,0.041,0.011,0.061,0.016c-0.102,0.304-0.196,0.611-0.309,0.911
					c-0.132,0.351-0.063,0.53,0.372,0.701c-0.37-0.359-0.178-0.648-0.035-0.951c0.107-0.231,0.185-0.477,0.321-0.711
					c-0.062,0.354-0.116,0.709-0.189,1.06c-0.08,0.384-0.004,0.7,0.415,0.968c-0.328-0.663-0.085-1.249,0.07-1.819
					c0.146-0.544,0.122-1.054-0.02-1.581c-0.052-0.194-0.076-0.395-0.047-0.618c0.045,0.071,0.09,0.142,0.141,0.223
					c0.02-0.024,0.055-0.046,0.053-0.066c-0.01-0.127-0.02-0.254-0.041-0.379c-0.037-0.2-0.121-0.399-0.119-0.597
					c0.006-0.621-0.281-1.093-0.721-1.485c-0.195-0.174-0.237-0.339-0.16-0.591c0.128-0.419,0.216-0.852,0.311-1.28
					C43,1.636,42.994,1.507,43.006,1.307c-0.128,0.088-0.2,0.14-0.275,0.187c-0.396,0.247-0.785,0.507-1.194,0.728
					c-0.116,0.063-0.318,0.058-0.442,0c-1.459-0.677-2.997-1.022-4.593-1.143c-1.389-0.105-2.681,0.155-3.876,0.906
					c-1.048,0.658-2.117,1.28-2.945,2.222c-0.204,0.232-0.351,0.513-0.538,0.76c-0.555,0.734-1.009,1.595-1.702,2.163
					c-0.941,0.771-1.775,1.602-2.506,2.568c-0.505,0.668-1.274,0.94-2.072,1.069c-1.59,0.257-3.186,0.468-4.804,0.465
					c-0.479-0.001-0.965,0.05-1.438,0.132c-0.924,0.16-1.789-0.113-2.668-0.295c-1.378-0.286-2.768-0.399-4.161-0.196
					c-1.766,0.257-3.172,1.183-4.396,2.44c-0.192,0.198-0.445,0.396-0.704,0.463c-2.181,0.559-3.055,2.231-3.604,4.181
					c-0.175,0.619-0.283,1.256-0.456,1.875c-0.104,0.365-0.252,0.725-0.415,1.071c-0.282,0.598-0.238,1.216-0.14,1.831
					c0.167,1.044,0.505,2.035,0.979,2.983c0.493,0.984,0.678,2.038,0.538,3.127c-0.064,0.496,0.11,0.806,0.503,1.044
					c0.146,0.088,0.295,0.166,0.462,0.26c-0.104,0.117-0.194,0.22-0.323,0.365c0.383-0.014,0.604-0.206,0.787-0.452
					c0.453-0.608,0.596-1.289,0.491-2.04c-0.042-0.306-0.007-0.623-0.007-0.935c0.039-0.004,0.078-0.007,0.118-0.011
					c0.108,0.511,0.218,1.021,0.328,1.539c0.63-0.281,1.23-0.697,1.594-1.382c0.31-0.583,0.283-1.189-0.02-1.763
					c-0.29-0.55-0.617-1.08-0.948-1.606c-0.843-1.339-1.239-2.775-0.978-4.358c0.041-0.249,0.144-0.489,0.216-0.733
					c0.057,0.004,0.113,0.007,0.169,0.011c0.041,0.219,0.104,0.436,0.118,0.657c0.071,1.046,0.278,2.062,0.671,3.035
					c0.44,1.086,1.09,2.02,2.068,2.696c0.256,0.177,0.302,0.368,0.165,0.657c-0.567,1.198-1.427,2.136-2.505,2.887
					c-0.098,0.067-0.199,0.128-0.292,0.201c-0.653,0.508-0.741,1.175-0.17,1.773c0.343,0.359,0.755,0.668,1.176,0.935
					c0.758,0.479,1.484,0.981,2.051,1.69c0.31,0.386,0.649,0.745,0.979,1.113c0.171,0.191,0.269,0.394,0.262,0.665
					c-0.012,0.49,0.209,0.912,0.466,1.315c0.235,0.367,0.214,0.484-0.126,0.757c-0.638,0.511-0.697,1.181-0.182,1.818
					c0.249,0.31,0.458,0.649,0.695,0.968c0.089,0.116,0.192,0.235,0.315,0.31c0.24,0.146,0.468,0.081,0.548-0.179
					c0.222-0.72,0.687-1.36,0.686-2.159c-0.001-0.258,0.14-0.514,0.187-0.776c0.035-0.196,0.065-0.412,0.023-0.602
					c-0.119-0.537-0.329-1.011-0.771-1.403c-0.993-0.883-1.83-1.911-2.463-3.082c-0.219-0.405-0.325-0.878-0.444-1.329
					c-0.034-0.132,0.013-0.355,0.107-0.438c0.426-0.369,0.877-0.71,1.329-1.047c0.722-0.539,1.419-1.1,1.862-2.021
					c0.036,0.16,0.099,0.27,0.073,0.354c-0.09,0.305-0.183,0.613-0.322,0.897c-0.236,0.479-0.525,0.93-0.763,1.406
					c-0.322,0.652-0.611,1.321-0.929,1.976c-0.192,0.398-0.137,0.818,0.165,1.198c0.589,0.74,1.2,1.464,1.744,2.235
					c0.698,0.989,1.368,2.001,1.994,3.037c0.283,0.471,0.407,1.036,0.65,1.535c0.137,0.277,0.339,0.54,0.565,0.752
					c0.219,0.206,0.497,0.227,0.757-0.006c0.061-0.054,0.215-0.076,0.277-0.036c0.069,0.044,0.136,0.187,0.116,0.267
					c-0.158,0.679,0.258,1.079,0.759,1.299c0.578,0.254,1.22,0.391,1.847,0.497c0.435,0.074,0.543-0.157,0.559-0.604
					c0.029-0.803-0.52-1.283-0.928-1.847c-0.044-0.061-0.154-0.07-0.22-0.122c-0.137-0.104-0.268-0.218-0.396-0.334
					c-0.131-0.119-0.237-0.278-0.388-0.36c-0.661-0.36-1.115-0.882-1.364-1.594c-0.043-0.124-0.129-0.255-0.233-0.331
					c-0.873-0.631-1.642-1.39-2.171-2.309c-0.723-1.253-0.766-2.616,0.038-3.852c0.551-0.849,1.322-1.551,1.927-2.369
					c0.525-0.712,0.988-1.478,1.41-2.256c0.18-0.333,0.209-0.761,0.25-1.15c0.028-0.275,0.145-0.444,0.392-0.467
					c0.425-0.039,0.856-0.061,1.282-0.035c1.146,0.066,2.292,0.167,3.438,0.239c1.774,0.11,3.469-0.309,5.169-0.742
					c0.941-0.24,1.917-0.352,2.883-0.486c0.125-0.018,0.331,0.139,0.41,0.27c0.3,0.495,0.567,1.009,0.831,1.523
					c0.071,0.139,0.128,0.307,0.122,0.457c-0.026,0.624,0.14,1.203,0.321,1.792c0.143,0.465,0.163,0.967,0.274,1.444
					c0.12,0.518,0.193,1.077,0.445,1.53c0.672,1.208,0.912,2.509,1.027,3.854c0.07,0.823,0.136,1.647,0.203,2.471
					c0.051,0.632,0.174,0.771,0.804,0.907c0.331,0.072,0.482,0.323,0.381,0.651c-0.031,0.101-0.095,0.19-0.141,0.288
					c-0.177,0.371-0.025,0.874,0.347,0.972c0.697,0.182,1.41,0.293,2.133,0.146c0.104-0.021,0.202-0.071,0.303-0.108
					c0.263-0.098,0.317-0.276,0.174-0.506c-0.204-0.328-0.409-0.656-0.64-0.966c-0.083-0.112-0.23-0.187-0.362-0.25
					c-0.293-0.144-0.476-0.364-0.629-0.656c-0.71-1.35-1.062-2.802-1.241-4.3c-0.078-0.647-0.121-1.293,0.091-1.944
					c0.102-0.312,0.07-0.682,0.042-1.021c-0.074-0.876-0.196-1.749-0.266-2.625c-0.041-0.502-0.042-1.01-0.019-1.513
					c0.02-0.409,0.178-0.479,0.578-0.386c1.169,0.271,2.34,0.537,3.514,0.787c0.418,0.089,0.717,0.281,0.912,0.676
					c0.591,1.194,0.901,2.454,0.924,3.781c0.004,0.174-0.073,0.393-0.191,0.517c-0.388,0.408-0.453,0.992-0.119,1.468
					c0.066,0.094,0.127,0.19,0.232,0.347c-0.204,0.028-0.346,0.053-0.486,0.068c-0.575,0.064-0.741,0.25-0.738,0.826
					c0.004,0.709,0.113,1.389,0.518,1.995c0.267,0.401,0.463,0.426,0.772,0.067c0.19-0.221,0.372-0.446,0.562-0.664
					c0.236-0.272,0.311-0.592,0.355-0.944c0.032-0.249,0.148-0.504,0.286-0.718c0.232-0.36,0.522-0.681,0.768-1.033
					c0.239-0.342,0.237-0.724,0.025-1.065c-0.581-0.942-0.672-1.999-0.771-3.06c-0.082-0.875-0.113-1.761-0.277-2.621
					c-0.16-0.842-0.598-1.642-1.479-1.835c-0.986-0.216-1.786-0.759-2.668-1.162c-0.458-0.21-0.925-0.399-1.388-0.596
					c-0.275-0.116-0.352-0.285-0.195-0.524c0.312-0.47,0.331-1.007,0.397-1.538c0.042-0.338,0.058-0.702,0.2-1
					c0.536-1.12,0.308-2.14-0.286-3.151c-0.204-0.346-0.384-0.721-0.49-1.107c-0.181-0.658,0.003-1.293,0.236-1.915
					c0.416-1.115,0.837-2.233,0.944-3.431c0.046-0.5,0.02-1.007,0.041-1.509c0.019-0.396,0.101-0.531,0.298-0.632
					c0.829,1.031,0.653,2.269,0.707,3.462c0.005,0.119-0.035,0.261-0.104,0.357c-0.185,0.256-0.188,0.51-0.079,0.791
					c0.081,0.209,0.124,0.433,0.214,0.638c0.065,0.148,0.152,0.315,0.279,0.394c0.056,0.035,0.25-0.114,0.354-0.209
					c0.098-0.089,0.158-0.218,0.293-0.416c-0.024,0.275-0.032,0.461-0.06,0.643c-0.062,0.427,0.299,0.783,0.729,0.707
					c0.126-0.022,0.257-0.074,0.378-0.058c0.63,0.085,1.078-0.237,1.455-0.669c0.135-0.156,0.176-0.402,0.233-0.615
					c0.136-0.492,0.238-0.994,0.387-1.482c0.248-0.809,0.519-1.61,0.788-2.412C42.039,9.049,42.134,8.909,42.21,8.761L42.21,8.761z"
					/>
			</g>
		</g>
	</g>
</g>
</svg>